PathFileType	4	(X/Y/Z)	Patient3_L_KneeIso_Processed.trc
DataRate	CameraRate	NumFrames	NumMarkers	Units	OrigDataRate	OrigDataStartFrame	OrigNumFrames
100.000000000000	100.000000000000	7	33	mm	100.000000000000	264	       301
Frame#	Time	L.Toe			R.Toe			L.Midfoot.Superior			Neck			R.Midfoot.Superior			R.Shoulder			L.Shank.Lateral			R.Wrist			L.Shoulder			R.Midfoot.Lateral			L.Heel			R.Heel			R.Patella			L.Wrist			R.Shank.Inferior			R.Shank.Lateral			L.Elbow			L.Asis			L.Shank.Inferior			L.Patella			L.Thigh.Lateral			L.Thigh.Superior			R.Elbow			R.Shank.Superior			L.Thigh.Inferior			R.Thigh.Superior			L.Midfoot.Lateral			R.Thigh.Lateral			L.Shank.Superior			R.Thigh.Inferior			Sacral			R.Asis			Sternum			
		X1	Y1	Z1	X2	Y2	Z2	X3	Y3	Z3	X4	Y4	Z4	X5	Y5	Z5	X6	Y6	Z6	X7	Y7	Z7	X8	Y8	Z8	X9	Y9	Z9	X10	Y10	Z10	X11	Y11	Z11	X12	Y12	Z12	X13	Y13	Z13	X14	Y14	Z14	X15	Y15	Z15	X16	Y16	Z16	X17	Y17	Z17	X18	Y18	Z18	X19	Y19	Z19	X20	Y20	Z20	X21	Y21	Z21	X22	Y22	Z22	X23	Y23	Z23	X24	Y24	Z24	X25	Y25	Z25	X26	Y26	Z26	X27	Y27	Z27	X28	Y28	Z28	X29	Y29	Z29	X30	Y30	Z30	X31	Y31	Z31	X32	Y32	Z32	X33	Y33	Z33	

264	3.630000000000	754.726550591772	79.649127251924	377.844374409282	690.383285606305	40.850054888538	588.844582768380	631.480464383795	115.535577783566	383.538518717464	478.451210484516	1485.159519575867	640.468261890690	565.423710100803	90.692413569864	590.064863952918	499.344030859550	1436.363050664918	786.382399215606	515.405100183319	363.535600085114	338.166860756040	584.009450385462	1173.412704692243	1113.259096596499	527.807634595732	1473.751686951329	501.834051905636	478.850405712058	30.736270293287	638.372460856403	462.537580402342	43.439762831816	396.221430153215	391.746442426351	37.103721367762	580.672512344923	604.110108474296	492.390484482003	647.564938473617	677.896692964907	1313.310650268919	497.377785065318	534.571138111496	214.354766732657	621.251689926468	487.581966237386	342.318939514812	705.088391021393	558.608963478020	1185.070785132429	316.490545715180	595.606999864542	987.803585165253	448.702102138250	586.563786248286	258.499419507934	391.567421610687	639.156878801363	522.340556641988	434.161692833401	561.091861449392	691.978942076949	371.719857187524	650.146675175553	764.484428461609	435.263398840750	400.801633547105	1133.444970915429	938.541315600997	570.841245398105	385.295603846661	654.121530983722	641.409784777034	639.306441269116	431.534418522496	635.057433073930	711.138788265537	690.278305937698	545.696392672147	48.912913223811	337.745400746030	544.405221152855	656.937076691313	738.414567048956	602.439389119052	414.545289602113	396.247426380223	619.675844996734	598.953365812068	665.875861017067	426.579640621400	1007.045152207703	589.289556327315	598.766667336719	971.238325300428	712.381471620360	612.791941735257	1389.004952687535	643.407660591995	
265	3.640000000000	753.957765217164	79.495131150057	377.646947240201	690.381386606157	40.859754749087	588.842760588893	630.742348975405	115.456888352986	383.526842098895	478.367296526746	1485.152642813992	640.516504550223	565.433462173720	90.698932481761	590.071441781074	499.313118078823	1436.338208059229	786.427736787386	514.873197161790	363.524204698420	338.302521967178	584.080748437088	1173.316342268461	1113.221578779151	527.710695894921	1473.785914506184	501.876727276282	478.851142228627	30.729687933854	638.376200241921	461.770720420827	43.461438347456	396.462002510205	391.743860845368	37.100633881527	580.675900285113	604.071952457704	492.393437478732	647.595300967851	677.841534610608	1313.386646212175	497.358003321410	534.547648430195	214.360593543666	621.283044761915	487.534979912528	342.315310692501	705.115601090503	558.556614923719	1185.156500093274	316.464503138910	595.480595609746	987.775116786861	448.658422077806	585.987926399869	258.429557083632	391.617163311973	638.946084567704	522.219936756258	434.109772016077	560.818575190245	691.942419237510	371.776072161904	649.951898185864	764.431050349783	435.166468378730	400.852414905342	1133.361058445496	938.518280208442	570.801319133592	385.295150073419	654.151817455382	641.172118609728	639.219651881522	431.449617445362	634.996184977772	711.131914449521	690.289593515381	544.837399053058	48.864941190534	337.883376448819	544.349757650224	656.945552162128	738.428636771622	602.049220618530	414.466223588503	396.251994805983	619.624231440771	598.948096485600	665.897829851700	426.509048493462	1007.072553207366	589.311273543456	598.734325339958	971.225998314794	712.339120643577	612.739160628581	1389.028773641794	643.414013580823	
266	3.650000000000	753.085248786812	79.307394369248	377.433419231271	690.379117261732	40.869793494128	588.840599342831	629.907572281618	115.371935365345	383.494475622796	478.287474669904	1485.148287714278	640.564934310205	565.445056741904	90.706072804297	590.077536294172	499.285464593492	1436.315773280996	786.472329018199	514.349273300085	363.537487069184	338.426874152446	584.155950711760	1173.222717478052	1113.181225850269	527.618559894157	1473.820563793283	501.921460528315	478.851234346057	30.723500870198	638.379956456024	460.888370341524	43.512701589128	396.663799648981	391.742599810305	37.096236404347	580.679144580061	604.031966284779	492.397515862231	647.618651994070	677.789151739304	1313.460695570194	497.340692655245	534.526480701046	214.366079110081	621.308278921209	487.490259822475	342.310536125582	705.137694832084	558.506501831920	1185.242038477801	316.440877119188	595.337974625014	987.748337515696	448.612936427403	585.373776795545	258.357329092343	391.655500991588	638.795315614529	522.078050063223	434.070224755201	560.566836941786	691.903905104244	371.840724099590	649.768558479061	764.391044911392	435.068427417073	400.904715996963	1133.279529293867	938.494161538580	570.762917164515	385.295747412164	654.176289484455	640.967812105401	639.136156970606	431.365933521091	634.930192703896	711.124932400814	690.296340487140	543.869742954936	48.836983714514	337.984676462975	544.291668074591	656.953767083361	738.441072657589	601.684482911914	414.376602124534	396.257494284259	619.569433348944	598.942758129973	665.914156273909	426.427807678631	1007.102632474326	589.336689922109	598.695176514834	971.212098965208	712.294325162372	612.690509873252	1389.051578665494	643.421789498142	
267	3.660000000000	752.099981012647	79.079432189837	377.208871297829	690.376564825963	40.879904860242	588.838114509364	628.968731970892	115.279907663520	383.441874870050	478.211848320203	1485.146662913993	640.614085726388	565.458228336212	90.713554225495	590.082959296067	499.261175419215	1436.295895303831	786.516453551967	513.839322994629	363.579324329051	338.537703228827	584.233909759985	1173.132862153465	1113.138950600202	527.530924033064	1473.855738874052	501.968384467758	478.850692629886	30.717796805050	638.383662654262	459.880041181725	43.600621506745	396.821036210642	391.743053027507	37.090368688862	580.682215599819	603.990196754349	492.403089648693	647.631440882513	677.738586534075	1313.532154114105	497.325693996749	534.508573080545	214.370945151458	621.325018575743	487.449737550649	342.304367828103	705.152815434992	558.456366199170	1185.327151634098	316.419924055836	595.178679159545	987.723928575499	448.565446615669	584.720329148223	258.283410734819	391.682449012464	638.713186970883	521.912385050237	434.047288067084	560.345462285018	691.863047855336	371.914468959018	649.600516935674	764.365839192712	434.976081989355	400.957057672743	1133.201436542499	938.470381521647	570.726984634578	385.297697013260	654.192504280659	640.803260233880	639.057114641626	431.290363165164	634.860400892933	711.118317634646	690.294336589163	542.785162322608	48.833570204883	338.045426752243	544.233278844639	656.961469657277	738.450276401951	601.350946733884	414.275585969731	396.265729441364	619.511820446347	598.937783980317	665.920732396099	426.335751135581	1007.134899445371	589.366033836818	598.649738740169	971.196792314765	712.246274338402	612.645467567151	1389.073158229489	643.431039684489	
268	3.670000000000	750.991918024068	78.804310603366	376.977552692036	690.373826569135	40.889870638576	588.835332394418	627.917726625078	115.180151038971	383.369299708077	478.140400904718	1485.147868264576	640.664588439334	565.472543637103	90.721069346649	590.087589996212	499.240379784126	1436.278604944933	786.560553278954	513.349103893871	363.653907686828	338.633161038025	584.313362705545	1173.047706993408	1113.095818620320	527.447255144555	1473.891567589431	502.017647145443	478.849527670507	30.712625924408	638.387260152724	458.734440338394	43.733294984086	396.928698756088	391.745567787224	37.082896496847	580.685105872796	603.946474060633	492.410508380329	647.630573136860	677.688741175396	1313.600547728566	497.312715140128	534.494575963677	214.374956993003	621.331308341285	487.414935037340	342.296595625939	705.159489852719	558.403824234899	1185.411722312441	316.401781844889	595.002314303736	987.702448522762	448.515741583602	584.026238916045	258.208739104017	391.698082961825	638.708658016961	521.720305716266	434.045124089451	560.163639832090	691.819383961991	371.997833294111	649.451644672230	764.356783012600	434.896659805671	401.008023256061	1133.127676120781	938.448404671468	570.694099741213	385.301275410185	654.198422052135	640.685385127148	638.983859626262	431.230305313106	634.787568254672	711.112549013887	690.279512580062	541.574156641552	48.859740390718	338.062239572926	544.176740944305	656.968473136449	738.454806720140	601.054320314294	414.162367971643	396.278530360606	619.451514772510	598.933619874339	665.913708522265	426.232806393437	1007.168850377986	589.399574913420	598.598637501256	971.180267901010	712.194138363087	612.603386513300	1389.093318605356	643.441764731965	
269	3.680000000000	749.750145290173	78.474843468855	376.742376328649	690.371007087105	40.899536926515	588.832290495645	626.745916672113	115.072263008271	383.276669243446	478.073011235163	1485.151893507474	640.717144660302	565.487393093640	90.728290598198	590.091386595451	499.223235210636	1436.263811191530	786.605224927345	512.883847274988	363.765693522210	338.711912733824	584.392986542484	1172.968070971781	1113.053007022240	527.366825816157	1473.928192578018	502.069409330577	478.847753689989	30.708005938297	638.390707980156	457.439653880041	43.919837892386	396.982862932592	391.750427047576	37.073718853570	580.687827377501	603.900440516032	492.420074362621	647.613643572189	677.638411913670	1313.665570424764	497.301350595987	534.484811357661	214.377930238408	621.325744865759	487.386867978249	342.287071844770	705.156715731277	558.346436126757	1185.495767849685	316.386467385187	594.808581046721	987.684313640071	448.463619910210	583.289823992584	258.134584887703	391.702473058857	638.790825753267	521.499154403802	434.067554715107	560.030596166049	691.772373473462	372.091217216101	649.325738367612	764.365156363680	434.837324521127	401.056299431897	1133.058975883644	938.429698209166	570.664447736983	385.306711908913	654.192544860619	640.621553557302	638.917916356676	431.193110530171	634.712205574432	711.108089126961	690.248253095720	540.226045428934	48.920951440799	338.032424265510	544.123851975617	656.974671220249	738.453464402705	600.800041779119	414.036251395474	396.297617509400	619.388394298428	598.930703665959	665.889785234313	426.118970469927	1007.203983265601	589.437573237753	598.542521940643	971.162746500555	712.137123369442	612.563517254138	1389.111871334218	643.453918827037	
270	3.690000000000	748.363070985290	78.083823126951	376.504533656867	690.368216422963	40.908823590811	588.829037826668	625.444313574854	114.956190463391	383.163455615488	478.009467598968	1485.158623854818	640.772499152057	565.501994791900	90.734876589140	590.094389680896	499.209928569990	1436.251306061082	786.651198317750	512.447977067264	363.919345202377	338.773254856258	584.471456979582	1172.894647770217	1113.011751211449	527.288758130977	1473.965760809938	502.123836679879	478.845396080384	30.703930909360	638.393990198433	455.983388031601	44.170362489606	396.980912776969	391.757831363173	37.062777164898	580.690407197507	603.851597113728	492.432020404346	647.579110151677	677.586322734167	1313.727068580315	497.291105263805	534.479263575344	214.379732944917	621.307559146240	487.365994505695	342.275725161441	705.144007167669	558.281768561618	1185.579434107415	316.373878530283	594.597324271602	987.669786950855	448.408925447999	582.509061950564	258.062617317338	391.695626767529	638.968661356580	521.246370050174	434.117807987259	559.955257302027	691.721445925251	372.194921266968	649.226432080589	764.392171940865	434.804696724304	401.100706153082	1132.995893689790	938.415685382089	570.637832321409	385.314170184914	654.174006691275	640.619455581725	638.861003156924	431.185622117632	634.634536774094	711.105366976465	690.197685465102	538.729111481772	49.022987011756	337.954158481900	544.075907460068	656.980042739361	738.445358908091	600.593052141893	413.896735926278	396.324475129765	619.322124640276	598.929446899304	665.846470494568	425.994288362869	1007.239810500367	589.480219133602	598.481974353377	971.144486141930	712.074538037839	612.525031104624	1389.128624847969	643.467413987887	
